<svg xmlns="http://www.w3.org/2000/svg" aria-hidden="true" data-prefix="fad" data-icon="times-circle" role="img" viewBox="0 0 512 512"><g><path xmlns="http://www.w3.org/2000/svg" d="M 255 30.889 C 428.645 30.889 537.175 218.865 450.353 369.245 C 408.625 441.52 330.403 484.85 247 481.889 C 73.41 478.81 -31.75 288.969 57.711 140.175 C 99.231 71.119 174.437 29.46 255 30.889 Z" fill="black"/><path xmlns="http://www.w3.org/2000/svg" fill="white" d="M377.6 321.1a12 12 0 0 1 0 17L338 377.6a12 12 0 0 1-17 0L256 312l-65.1 65.6a12 12 0 0 1-17 0L134.4 338a12 12 0 0 1 0-17l65.6-65-65.6-65.1a12 12 0 0 1 0-17l39.6-39.6a12 12 0 0 1 17 0l65 65.7 65.1-65.6a12 12 0 0 1 17 0l39.6 39.6a12 12 0 0 1 0 17L312 256z"/><path fill="white" d="M256 8C119 8 8 119 8 256s111 248 248 248 248-111 248-248S393 8 256 8zm0 448c-110.5 0-200-89.5-200-200S145.5 56 256 56s200 89.5 200 200-89.5 200-200 200zm101.8-262.2L295.6 256l62.2 62.2c4.7 4.7 4.7 12.3 0 17l-22.6 22.6c-4.7 4.7-12.3 4.7-17 0L256 295.6l-62.2 62.2c-4.7 4.7-12.3 4.7-17 0l-22.6-22.6c-4.7-4.7-4.7-12.3 0-17l62.2-62.2-62.2-62.2c-4.7-4.7-4.7-12.3 0-17l22.6-22.6c4.7-4.7 12.3-4.7 17 0l62.2 62.2 62.2-62.2c4.7-4.7 12.3-4.7 17 0l22.6 22.6c4.7 4.7 4.7 12.3 0 17z"/></g></svg>