<?xml version="1.0" encoding="utf-8"?>
<svg viewBox="0 0 512 512" fill="white" xmlns="http://www.w3.org/2000/svg">
  <g transform="matrix(-1.107551, 0, 0, 1.107551, 571.110107, 0.000001)" style="">
    <g transform="matrix(-1.351287, 0, 0, 1.351287, 563.204895, -55.516342)" style="">
      <path d="M 245.238 179.21 L 260.977 163.47 C 269.978 169.246 282.054 168.206 289.932 160.326 C 294.325 155.934 296.743 150.095 296.743 143.885 C 296.743 131.034 286.345 120.632 273.492 120.632 C 267.281 120.632 261.442 123.051 257.051 127.443 C 249.196 135.298 248.112 147.368 253.906 156.4 L 239.029 171.277 C 230.046 161.73 217.709 155.38 203.916 154.133 L 203.916 118.85 C 210.611 116.724 215.478 110.453 215.478 103.063 C 215.478 93.93 208.048 86.5 198.916 86.5 C 189.783 86.5 182.353 93.93 182.353 103.063 C 182.353 110.453 187.22 116.725 193.916 118.85 L 193.916 154.134 C 182.472 155.169 172.027 159.71 163.67 166.682 L 156.386 159.399 C 157.599 157.069 158.248 154.47 158.248 151.769 C 158.248 142.616 150.841 135.206 141.685 135.206 C 132.533 135.206 125.123 142.613 125.123 151.769 C 125.123 156.193 126.846 160.352 129.975 163.48 C 135.263 168.77 143.138 169.686 149.316 166.469 L 156.599 173.753 C 149.556 182.195 144.996 192.77 144.024 204.351 L 126.9 204.351 C 124.653 195.312 116.492 188.584 106.767 188.584 C 95.316 188.584 85.999 197.9 85.999 209.351 C 85.999 220.802 95.315 230.118 106.767 230.118 C 116.492 230.118 124.653 223.39 126.9 214.351 L 144.076 214.351 C 145.172 225.659 149.697 235.976 156.598 244.248 L 149.315 251.531 C 143.134 248.312 135.26 249.233 129.974 254.52 C 123.516 260.977 123.516 271.485 129.974 277.942 C 136.445 284.415 146.923 284.417 153.396 277.942 C 158.622 272.716 159.615 264.84 156.383 258.603 L 163.669 251.318 C 172.026 258.291 182.471 262.832 193.915 263.867 L 193.915 274.15 C 187.22 276.275 182.352 282.547 182.352 289.937 C 182.352 299.07 189.782 306.5 198.915 306.5 C 208.048 306.5 215.477 299.07 215.477 289.937 C 215.477 282.546 210.61 276.275 203.915 274.15 L 203.915 263.867 C 215.359 262.832 225.806 258.291 234.163 251.318 L 241.449 258.603 C 238.218 264.84 239.211 272.716 244.436 277.942 C 250.907 284.415 261.385 284.417 267.858 277.942 C 274.316 271.485 274.316 260.977 267.858 254.52 C 262.575 249.235 254.701 248.311 248.517 251.531 L 241.233 244.247 C 248.207 235.89 252.748 225.444 253.783 213.999 L 264.066 213.999 C 266.191 220.695 272.462 225.562 279.853 225.562 C 288.986 225.562 296.416 218.132 296.416 208.999 C 296.416 199.866 288.986 192.436 279.853 192.436 C 272.462 192.436 266.191 197.303 264.066 203.999 L 253.783 203.999 C 252.964 194.926 249.934 186.485 245.238 179.21 Z M 264.121 134.515 C 269.3 129.336 277.682 129.334 282.862 134.515 C 288.029 139.682 288.029 148.089 282.861 153.256 C 277.683 158.435 269.301 158.435 264.121 153.255 C 258.954 148.088 258.954 139.682 264.121 134.515 Z M 198.916 96.5 C 202.534 96.5 205.478 99.444 205.478 103.063 C 205.478 106.682 202.534 109.626 198.916 109.626 C 195.298 109.626 192.353 106.682 192.353 103.063 C 192.353 99.444 195.298 96.5 198.916 96.5 Z M 135.123 151.769 C 135.123 148.143 138.059 145.206 141.685 145.206 C 145.312 145.206 148.248 148.141 148.248 151.769 C 148.248 155.395 145.312 158.332 141.685 158.332 C 138.059 158.331 135.123 155.396 135.123 151.769 Z M 106.768 220.117 C 100.83 220.117 96 215.287 96 209.35 C 96 203.413 100.83 198.583 106.768 198.583 C 112.705 198.583 117.535 203.413 117.535 209.35 C 117.534 215.287 112.704 220.117 106.768 220.117 Z M 146.326 270.872 C 143.76 273.436 139.611 273.436 137.045 270.872 C 134.486 268.313 134.486 264.149 137.045 261.591 C 139.611 259.027 143.76 259.027 146.326 261.591 C 148.885 264.149 148.885 268.314 146.326 270.872 Z M 198.916 296.5 C 195.298 296.5 192.353 293.556 192.353 289.937 C 192.353 286.318 195.297 283.374 198.916 283.374 C 202.534 283.374 205.478 286.318 205.478 289.937 C 205.478 293.556 202.534 296.5 198.916 296.5 Z M 260.789 261.591 C 263.348 264.15 263.348 268.314 260.789 270.872 C 258.223 273.436 254.074 273.436 251.508 270.872 C 248.949 268.313 248.949 264.149 251.508 261.591 C 252.748 260.352 254.396 259.669 256.149 259.669 C 257.901 259.669 259.549 260.352 260.789 261.591 Z M 198.916 254.105 C 174.046 254.105 153.812 233.871 153.812 209 C 153.812 184.129 174.045 163.896 198.916 163.896 C 223.787 163.896 244.021 184.129 244.021 209 C 244.021 233.871 223.787 254.105 198.916 254.105 Z M 279.854 202.438 C 283.472 202.438 286.417 205.382 286.417 209.001 C 286.417 212.62 283.473 215.564 279.854 215.564 C 276.236 215.564 273.291 212.62 273.291 209.001 C 273.291 205.382 276.236 202.438 279.854 202.438 Z"/>
      <path d="M 210.478 177.021 C 201.345 177.021 193.916 184.451 193.916 193.584 C 193.916 202.717 201.346 210.147 210.478 210.147 C 219.61 210.147 227.041 202.717 227.041 193.584 C 227.041 184.451 219.611 177.021 210.478 177.021 Z M 210.478 200.146 C 206.86 200.146 203.916 197.202 203.916 193.583 C 203.916 189.964 206.86 187.02 210.478 187.02 C 214.096 187.02 217.041 189.964 217.041 193.583 C 217.041 197.202 214.097 200.146 210.478 200.146 Z"/>
      <path d="M 187.353 215.563 C 180.346 215.563 174.646 221.264 174.646 228.271 C 174.646 235.278 180.346 240.979 187.353 240.979 C 194.361 240.979 200.062 235.278 200.062 228.271 C 200.062 221.264 194.361 215.563 187.353 215.563 Z M 187.353 230.979 C 185.861 230.979 184.646 229.764 184.646 228.271 C 184.646 226.777 185.861 225.563 187.353 225.563 C 188.847 225.563 190.062 226.778 190.062 228.271 C 190.062 229.764 188.848 230.979 187.353 230.979 Z"/>
    </g>
    <g>
      <path d="M 447.615 64.386 C 406.095 22.866 350.892 0 292.175 0 C 233.458 0 178.255 22.866 136.736 64.386 C 95.217 105.905 72.35 161.108 72.35 219.824 C 72.35 273.507 91.474 324.245 126.482 364.282 L 60.236 434.967 C 54.372 440.831 54.372 450.338 60.236 456.203 C 63.168 459.134 67.011 460.601 70.853 460.601 C 74.695 460.601 78.539 459.135 81.47 456.202 L 147.717 385.518 C 187.754 420.525 238.492 439.65 292.175 439.65 C 350.893 439.65 406.094 416.784 447.614 375.264 C 489.133 333.745 511.999 278.542 511.999 219.825 C 511.999 161.108 489.134 105.905 447.615 64.386 Z M 426.379 354.029 C 352.378 428.029 231.973 428.029 157.972 354.029 C 83.972 280.029 83.972 159.622 157.972 85.622 C 194.976 48.618 243.568 30.122 292.176 30.122 C 340.772 30.122 389.384 48.627 426.38 85.622 C 500.378 159.621 500.378 280.028 426.379 354.029 Z"/>
    </g>
  </g>
</svg>