<svg xml:space="preserve" viewBox="0 0 512 512" version="1.1" xmlns="http://www.w3.org/2000/svg" fill="white"><g><g><g><path d="M381.68,329.147c-13.448-13.448-34.552-14.563-49.258-3.296l-25.056-25.056     c53.033-56.775,51.884-146.106-3.468-201.458c-27.387-27.387-63.8-42.469-102.53-42.469c-38.73,0-75.144,15.083-102.53,42.469     c-27.388,27.387-42.47,63.8-42.47,102.531c0,38.731,15.082,75.143,42.47,102.53c27.387,27.387,63.8,42.47,102.53,42.47     c37.059,0,71.99-13.817,98.929-39.001l25.058,25.058c-11.221,14.689-10.13,35.833,3.293,49.255l58.336,58.338     c14.654,14.652,38.376,14.657,53.033-0.002c14.621-14.62,14.621-38.411,0-53.032L381.68,329.147z M105.908,297.328     c-25.498-25.499-39.54-59.4-39.54-95.46c0-36.06,14.042-69.962,39.54-95.459c25.499-25.498,59.4-39.54,95.46-39.54     c36.059,0,69.961,14.042,95.46,39.54c52.636,52.636,52.636,138.282,0,190.919c-25.499,25.497-59.4,39.54-95.46,39.54     C165.309,336.868,131.407,322.825,105.908,297.328z M432.945,433.446c-10.748,10.746-28.143,10.747-38.892,0l-58.336-58.337     c-10.722-10.723-10.722-28.169,0-38.892c10.747-10.746,28.143-10.749,38.892,0l58.336,58.336     C443.668,405.276,443.667,422.724,432.945,433.446z"/><path d="M357.035,362.965c-1.951-1.953-5.119-1.953-7.07,0c-1.953,1.952-1.953,5.118,0,7.07l47.5,47.5     c1.951,1.953,5.119,1.953,7.07,0c1.953-1.952,1.953-5.118,0-7.07L357.035,362.965z"/><path d="M245.238,179.21l15.739-15.74c9.001,5.776,21.077,4.736,28.955-3.144     c4.393-4.392,6.811-10.231,6.811-16.441c0-12.851-10.398-23.253-23.251-23.253c-6.211,0-12.05,2.419-16.441,6.811     c-7.855,7.855-8.939,19.925-3.145,28.957l-14.877,14.877c-8.983-9.547-21.32-15.897-35.113-17.144V118.85     c6.695-2.126,11.562-8.397,11.562-15.787c0-9.133-7.43-16.563-16.562-16.563c-9.133,0-16.563,7.43-16.563,16.563     c0,7.39,4.867,13.662,11.563,15.787v35.284c-11.444,1.035-21.889,5.576-30.246,12.548l-7.284-7.283     c1.213-2.33,1.862-4.929,1.862-7.63c0-9.153-7.407-16.563-16.563-16.563c-9.152,0-16.562,7.407-16.562,16.563     c0,4.424,1.723,8.583,4.852,11.711c5.288,5.29,13.163,6.206,19.341,2.989l7.283,7.284c-7.043,8.442-11.603,19.017-12.575,30.598     H126.9c-2.247-9.039-10.408-15.767-20.133-15.767c-11.451,0-20.768,9.316-20.768,20.767c0,11.451,9.316,20.767,20.768,20.767     c9.725,0,17.886-6.728,20.133-15.767h17.176c1.096,11.308,5.621,21.625,12.522,29.897l-7.283,7.283     c-6.181-3.219-14.055-2.298-19.341,2.989c-6.458,6.457-6.458,16.965,0,23.422c6.471,6.473,16.949,6.475,23.422,0     c5.226-5.226,6.219-13.102,2.987-19.339l7.286-7.285c8.357,6.973,18.802,11.514,30.246,12.549v10.283     c-6.695,2.125-11.563,8.397-11.563,15.787c0,9.133,7.43,16.563,16.563,16.563c9.133,0,16.562-7.43,16.562-16.563     c0-7.391-4.867-13.662-11.562-15.787v-10.283c11.444-1.035,21.891-5.576,30.248-12.549l7.286,7.285     c-3.231,6.237-2.238,14.113,2.987,19.339c6.471,6.473,16.949,6.475,23.422,0c6.458-6.457,6.458-16.965,0-23.422     c-5.283-5.285-13.157-6.209-19.341-2.989l-7.284-7.284c6.974-8.357,11.515-18.803,12.55-30.248h10.283     c2.125,6.696,8.396,11.563,15.787,11.563c9.133,0,16.563-7.43,16.563-16.563s-7.43-16.563-16.563-16.563     c-7.391,0-13.662,4.867-15.787,11.563h-10.283C252.964,194.926,249.934,186.485,245.238,179.21z M264.121,134.515     c5.179-5.179,13.561-5.181,18.741,0c5.167,5.167,5.167,13.574-0.001,18.741c-5.178,5.179-13.56,5.179-18.74-0.001     C258.954,148.088,258.954,139.682,264.121,134.515z M198.916,96.5c3.618,0,6.562,2.944,6.562,6.563s-2.944,6.563-6.562,6.563     c-3.618,0-6.563-2.944-6.563-6.563S195.298,96.5,198.916,96.5z M135.123,151.769c0-3.626,2.936-6.563,6.562-6.563     c3.627,0,6.563,2.935,6.563,6.563c0,3.626-2.936,6.563-6.563,6.563C138.059,158.331,135.123,155.396,135.123,151.769z      M106.768,220.117c-5.938,0-10.768-4.83-10.768-10.767c0-5.937,4.83-10.767,10.768-10.767c5.937,0,10.767,4.83,10.767,10.767     C117.534,215.287,112.704,220.117,106.768,220.117z M146.326,270.872c-2.566,2.564-6.715,2.564-9.281,0     c-2.559-2.559-2.559-6.723,0-9.281c2.566-2.564,6.715-2.564,9.281,0C148.885,264.149,148.885,268.314,146.326,270.872z      M198.916,296.5c-3.618,0-6.563-2.944-6.563-6.563s2.944-6.563,6.563-6.563c3.618,0,6.562,2.944,6.562,6.563     S202.534,296.5,198.916,296.5z M260.789,261.591c2.559,2.559,2.559,6.723,0,9.281c-2.566,2.564-6.715,2.564-9.281,0     c-2.559-2.559-2.559-6.723,0-9.281c1.24-1.239,2.888-1.922,4.641-1.922C257.901,259.669,259.549,260.352,260.789,261.591z      M198.916,254.105c-24.87,0-45.104-20.234-45.104-45.105s20.233-45.104,45.104-45.104c24.871,0,45.105,20.233,45.105,45.104     S223.787,254.105,198.916,254.105z M279.854,202.438c3.618,0,6.563,2.944,6.563,6.563s-2.944,6.563-6.563,6.563     c-3.618,0-6.563-2.944-6.563-6.563S276.236,202.438,279.854,202.438z"/><path d="M210.478,177.021c-9.133,0-16.562,7.43-16.562,16.563s7.43,16.563,16.562,16.563     s16.563-7.43,16.563-16.563S219.611,177.021,210.478,177.021z M210.478,200.146c-3.618,0-6.562-2.944-6.562-6.563     c0-3.619,2.944-6.563,6.562-6.563c3.618,0,6.563,2.944,6.563,6.563C217.041,197.202,214.097,200.146,210.478,200.146z"/><path d="M187.353,215.563c-7.007,0-12.707,5.701-12.707,12.708c0,7.007,5.7,12.708,12.707,12.708     c7.008,0,12.709-5.701,12.709-12.708C200.062,221.264,194.361,215.563,187.353,215.563z M187.353,230.979     c-1.492,0-2.707-1.215-2.707-2.708c0-1.494,1.215-2.708,2.707-2.708c1.494,0,2.709,1.215,2.709,2.708     C190.062,229.764,188.848,230.979,187.353,230.979z"/></g></g></g><g/></svg>