<svg height="512" viewBox="0 0 64 64" width="512" xmlns="http://www.w3.org/2000/svg"><g id="Fill_Outline" data-name="Fill Outline"><path d="m24 3h8a12 12 0 0 1 12 12v2a0 0 0 0 1 0 0h-8a12 12 0 0 1 -12-12v-2a0 0 0 0 1 0 0z" fill="#c4f236" transform="matrix(-1 0 0 -1 68 20)"/><path d="m55 10-13 12s-3 0-3-1 12-15 12-15z" fill="#c4f236"/><path d="m40 6.07v.93a5 5 0 0 1 -5 5h-1a13.92 13.92 0 0 1 -9.55-3.78 12 12 0 0 0 11.55 8.78h8v-2a12 12 0 0 0 -4-8.93z" fill="#a1d51c"/><path d="m51.84 10.61a4.25 4.25 0 0 1 -5.43.82c-3.41 4.06-7.41 8.99-7.41 9.57 0 1 3 1 3 1l13-12-1.4-1.4z" fill="#a1d51c"/><path d="m40.83 52.87c7.94-7.94 10.77-21.15 5.33-29.44 1.59-1.93 1.78-4.47.33-5.92s-4-1.26-5.92.33c-8.29-5.44-21.5-2.61-29.44 5.33s-10.76 21.14-5.33 29.44c-1.58 1.92-1.8 4.46-.32 5.91s4 1.26 5.91-.32c8.3 5.43 21.51 2.6 29.44-5.33z" fill="#f9e109"/><path d="m46.5 24c-2.07 6.82-8.5 13.35-17.36 16.77-9.78 3.76-19.82 2.7-25.84-2-.75 5 0 10 2.5 13.85-1.58 1.91-1.8 4.45-.32 5.9s4 1.26 5.91-.32c8.3 5.43 21.51 2.6 29.44-5.33 7.76-7.76 10.62-20.55 5.67-28.87z" fill="#fcbc04"/><path d="m47.19 18.6a15.54 15.54 0 0 1 -.25 3.59 4.43 4.43 0 0 0 .25-3.59z" fill="#fcbc04"/><path d="m14 41a24.24 24.24 0 0 0 10.69 19.78 28.45 28.45 0 0 0 16.14-7.91 28.44 28.44 0 0 0 7-11.87z" fill="#fcbc04"/><path d="m28.48 41a32.13 32.13 0 0 1 -14.4 1.86 24.44 24.44 0 0 0 10.61 17.92 28.45 28.45 0 0 0 16.14-7.91 28.5 28.5 0 0 0 7-11.87z" fill="#e59730"/><path d="m60 41c0 11-9.85 20-22 20s-22-9-22-20z" fill="#f9e109"/><path d="m49.76 41c-1.59 6.78-11.17 12-22.76 12a36.49 36.49 0 0 1 -7.14-.69 22.64 22.64 0 0 0 18.14 8.69c12.15 0 22-9 22-20z" fill="#fcbc04"/><path d="m56 41h-18l12.33 11c3.43-3.13 5.67-7.2 5.67-11z" fill="#f9ed86"/><path d="m25.67 52 12.33-11h-18c0 3.8 2.24 7.87 5.67 11z" fill="#f9ed86"/><path d="m38 57v-16l-12.33 11a18.81 18.81 0 0 0 12.33 5z" fill="#f9ed86"/><path d="m50.33 52-12.33-11v16a18.81 18.81 0 0 0 12.33-5z" fill="#f9ed86"/><path d="m45.28 47.47 5 4.49c3.48-3.09 5.72-7.16 5.72-10.96h-6.24a12 12 0 0 1 -4.48 6.47z" fill="#f9e109"/><path d="m38 51.28a35 35 0 0 1 -11 1.72h-.08a18.48 18.48 0 0 0 11.08 4z" fill="#f9e109"/><path d="m38 51.28v5.72a18.81 18.81 0 0 0 12.33-5l-5-4.49a23.41 23.41 0 0 1 -7.33 3.77z" fill="#f9e109"/><g fill="#39519d"><circle cx="9" cy="43" r="1"/><circle cx="10" cy="36" r="1"/><circle cx="16" cy="36" r="1"/><path d="m23.41 59.91a18 18 0 0 1 -11.47-2.55 1 1 0 0 0 -1.19.07c-1.54 1.28-3.51 1.44-4.57.38s-.89-3 .39-4.57c0 0 0 0 0-.05s.19-.22.3-.32a5.14 5.14 0 0 1 1.38-1 1 1 0 0 0 .47-1.33 1 1 0 0 0 -1.34-.47 7 7 0 0 0 -1.38.93c-4.14-7.73-1.69-19.6 5.84-27.13s19.41-10 27.13-5.8a6.91 6.91 0 0 0 -.92 1.4 1 1 0 0 0 .47 1.33.94.94 0 0 0 .43.1 1 1 0 0 0 .9-.56 5.17 5.17 0 0 1 1-1.38c.13-.13.25-.24.38-.35 1.54-1.26 3.5-1.43 4.55-.37s.89 3-.39 4.57a1 1 0 0 0 -.06 1.19 18.71 18.71 0 0 1 2.38 12.89 1 1 0 0 0 2 .28 21 21 0 0 0 -2.32-13.67 5.6 5.6 0 0 0 .58-5.6l7.73-7.14a1 1 0 0 0 .3-.76 1.05 1.05 0 0 0 -.29-.73l-4-4a1 1 0 0 0 -.71-.27 1 1 0 0 0 -.72.35s-1.78 2.07-4 4.68a1 1 0 0 0 1.54 1.29c1.34-1.61 2.53-3 3.25-3.85l2.5 2.5-6.92 6.38a4.23 4.23 0 0 0 -1.65-.71v-.64a13 13 0 0 0 -13-13h-8a1 1 0 0 0 -1 1v2a12.86 12.86 0 0 0 2.49 7.64 1 1 0 1 0 1.61-1.18 10.94 10.94 0 0 1 -2.1-6.46v-1h7a11 11 0 0 1 11 11v.05a13 13 0 0 0 -12-8.05 1 1 0 0 0 0 2 11 11 0 0 1 10.31 7.18 6.06 6.06 0 0 0 -.78.45c-8.45-5-21.78-2.49-30.1 5.83s-10.85 21.65-5.84 30.1c-1.5 2.26-1.46 5 .18 6.67s4.41 1.69 6.67.18a19.57 19.57 0 0 0 10.07 2.59c.68 0 1.37 0 2.06-.09a1 1 0 1 0 -.16-2z"/><path d="m60 40h-44a1 1 0 0 0 -1 1c0 11.58 10.32 21 23 21a24.21 24.21 0 0 0 15.53-5.51 1 1 0 1 0 -1.28-1.49 22.16 22.16 0 0 1 -14.25 5c-11.21 0-20.39-8-21-18h2c.34 3.67 2.49 7.6 5.93 10.7a19.86 19.86 0 0 0 13.07 5.3 19.86 19.86 0 0 0 13-5.3c3.44-3.1 5.59-7 5.93-10.7h2a17.76 17.76 0 0 1 -4 10.24 1 1 0 1 0 1.55 1.26 19.64 19.64 0 0 0 4.52-12.5 1 1 0 0 0 -1-1zm-23 16a17.88 17.88 0 0 1 -9.81-4l4.38-3.89 5.43-4.88zm-15.93-14h14.3l-9.68 8.6a14.92 14.92 0 0 1 -4.62-8.6zm17.93 1.23 5.43 4.82 4.38 3.89a17.88 17.88 0 0 1 -9.81 4.06zm11.31 7.37-9.68-8.6h14.3a14.92 14.92 0 0 1 -4.62 8.6z"/></g></g></svg>